<mxfile host="app.diagrams.net" modified="2023-08-10T13:37:47.176Z" agent="Mozilla/5.0 (Windows NT 10.0; Win64; x64) AppleWebKit/537.36 (KHTML, like Gecko) Chrome/115.0.0.0 Safari/537.36 Edg/115.0.1901.200" etag="HIcmjea0AwwWTxYQPc7y" version="21.6.6" type="device">
  <diagram name="Page-1" id="PY2M9GYCqYlyKJx1E7Tt">
    <mxGraphModel dx="2206" dy="1212" grid="1" gridSize="10" guides="1" tooltips="1" connect="1" arrows="1" fold="1" page="0" pageScale="1" pageWidth="850" pageHeight="1100" math="0" shadow="0">
      <root>
        <mxCell id="0" />
        <mxCell id="1" parent="0" />
        <mxCell id="WAfRJhl1cSiEHKuEGv_O-5" value="" style="edgeStyle=orthogonalEdgeStyle;rounded=0;orthogonalLoop=1;jettySize=auto;html=1;" edge="1" parent="1" source="WAfRJhl1cSiEHKuEGv_O-2" target="WAfRJhl1cSiEHKuEGv_O-3">
          <mxGeometry relative="1" as="geometry" />
        </mxCell>
        <mxCell id="WAfRJhl1cSiEHKuEGv_O-2" value="START" style="html=1;dashed=0;whiteSpace=wrap;shape=mxgraph.dfd.start;strokeWidth=2;" vertex="1" parent="1">
          <mxGeometry x="280" y="160" width="120" height="40" as="geometry" />
        </mxCell>
        <mxCell id="WAfRJhl1cSiEHKuEGv_O-6" value="" style="edgeStyle=orthogonalEdgeStyle;rounded=0;orthogonalLoop=1;jettySize=auto;html=1;" edge="1" parent="1" source="WAfRJhl1cSiEHKuEGv_O-3" target="WAfRJhl1cSiEHKuEGv_O-4">
          <mxGeometry relative="1" as="geometry" />
        </mxCell>
        <mxCell id="WAfRJhl1cSiEHKuEGv_O-3" value="print main menu" style="shape=parallelogram;html=1;strokeWidth=2;perimeter=parallelogramPerimeter;whiteSpace=wrap;rounded=1;arcSize=12;size=0.23;" vertex="1" parent="1">
          <mxGeometry x="260" y="240" width="160" height="40" as="geometry" />
        </mxCell>
        <mxCell id="WAfRJhl1cSiEHKuEGv_O-11" value="" style="edgeStyle=orthogonalEdgeStyle;rounded=0;orthogonalLoop=1;jettySize=auto;html=1;" edge="1" parent="1" source="WAfRJhl1cSiEHKuEGv_O-4" target="WAfRJhl1cSiEHKuEGv_O-7">
          <mxGeometry relative="1" as="geometry" />
        </mxCell>
        <mxCell id="WAfRJhl1cSiEHKuEGv_O-4" value="read input" style="shape=parallelogram;html=1;strokeWidth=2;perimeter=parallelogramPerimeter;whiteSpace=wrap;rounded=1;arcSize=12;size=0.23;" vertex="1" parent="1">
          <mxGeometry x="260" y="320" width="160" height="40" as="geometry" />
        </mxCell>
        <mxCell id="WAfRJhl1cSiEHKuEGv_O-9" value="" style="edgeStyle=orthogonalEdgeStyle;rounded=0;orthogonalLoop=1;jettySize=auto;html=1;" edge="1" parent="1" source="WAfRJhl1cSiEHKuEGv_O-7" target="WAfRJhl1cSiEHKuEGv_O-8">
          <mxGeometry relative="1" as="geometry" />
        </mxCell>
        <mxCell id="WAfRJhl1cSiEHKuEGv_O-10" value="no" style="edgeLabel;html=1;align=center;verticalAlign=middle;resizable=0;points=[];fontSize=12;" vertex="1" connectable="0" parent="WAfRJhl1cSiEHKuEGv_O-9">
          <mxGeometry x="-0.1417" y="-2" relative="1" as="geometry">
            <mxPoint x="1" as="offset" />
          </mxGeometry>
        </mxCell>
        <mxCell id="WAfRJhl1cSiEHKuEGv_O-21" style="edgeStyle=orthogonalEdgeStyle;rounded=0;orthogonalLoop=1;jettySize=auto;html=1;exitX=1;exitY=0.5;exitDx=0;exitDy=0;exitPerimeter=0;entryX=0;entryY=0.5;entryDx=0;entryDy=0;" edge="1" parent="1" source="WAfRJhl1cSiEHKuEGv_O-7" target="WAfRJhl1cSiEHKuEGv_O-20">
          <mxGeometry relative="1" as="geometry">
            <Array as="points">
              <mxPoint x="460" y="460" />
              <mxPoint x="460" y="180" />
            </Array>
          </mxGeometry>
        </mxCell>
        <mxCell id="WAfRJhl1cSiEHKuEGv_O-22" value="yes" style="edgeLabel;html=1;align=center;verticalAlign=middle;resizable=0;points=[];fontSize=12;" vertex="1" connectable="0" parent="WAfRJhl1cSiEHKuEGv_O-21">
          <mxGeometry x="-0.8507" y="2" relative="1" as="geometry">
            <mxPoint y="1" as="offset" />
          </mxGeometry>
        </mxCell>
        <mxCell id="WAfRJhl1cSiEHKuEGv_O-7" value="input is 1?" style="strokeWidth=2;html=1;shape=mxgraph.flowchart.decision;whiteSpace=wrap;" vertex="1" parent="1">
          <mxGeometry x="280" y="400" width="120" height="120" as="geometry" />
        </mxCell>
        <mxCell id="WAfRJhl1cSiEHKuEGv_O-13" value="" style="edgeStyle=orthogonalEdgeStyle;rounded=0;orthogonalLoop=1;jettySize=auto;html=1;" edge="1" parent="1" source="WAfRJhl1cSiEHKuEGv_O-8" target="WAfRJhl1cSiEHKuEGv_O-12">
          <mxGeometry relative="1" as="geometry" />
        </mxCell>
        <mxCell id="WAfRJhl1cSiEHKuEGv_O-14" value="no" style="edgeLabel;html=1;align=center;verticalAlign=middle;resizable=0;points=[];fontSize=12;" vertex="1" connectable="0" parent="WAfRJhl1cSiEHKuEGv_O-13">
          <mxGeometry x="-0.2257" y="-1" relative="1" as="geometry">
            <mxPoint x="1" as="offset" />
          </mxGeometry>
        </mxCell>
        <mxCell id="WAfRJhl1cSiEHKuEGv_O-8" value="input is 2?" style="strokeWidth=2;html=1;shape=mxgraph.flowchart.decision;whiteSpace=wrap;" vertex="1" parent="1">
          <mxGeometry x="280" y="560" width="120" height="120" as="geometry" />
        </mxCell>
        <mxCell id="WAfRJhl1cSiEHKuEGv_O-16" value="" style="edgeStyle=orthogonalEdgeStyle;rounded=0;orthogonalLoop=1;jettySize=auto;html=1;" edge="1" parent="1" source="WAfRJhl1cSiEHKuEGv_O-12" target="WAfRJhl1cSiEHKuEGv_O-15">
          <mxGeometry relative="1" as="geometry" />
        </mxCell>
        <mxCell id="WAfRJhl1cSiEHKuEGv_O-17" value="yes" style="edgeLabel;html=1;align=center;verticalAlign=middle;resizable=0;points=[];fontSize=12;" vertex="1" connectable="0" parent="WAfRJhl1cSiEHKuEGv_O-16">
          <mxGeometry x="-0.1385" relative="1" as="geometry">
            <mxPoint as="offset" />
          </mxGeometry>
        </mxCell>
        <mxCell id="WAfRJhl1cSiEHKuEGv_O-18" style="edgeStyle=orthogonalEdgeStyle;rounded=0;orthogonalLoop=1;jettySize=auto;html=1;exitX=0;exitY=0.5;exitDx=0;exitDy=0;exitPerimeter=0;" edge="1" parent="1" source="WAfRJhl1cSiEHKuEGv_O-12">
          <mxGeometry relative="1" as="geometry">
            <mxPoint x="340" y="220" as="targetPoint" />
            <Array as="points">
              <mxPoint x="240" y="780" />
              <mxPoint x="240" y="220" />
            </Array>
          </mxGeometry>
        </mxCell>
        <mxCell id="WAfRJhl1cSiEHKuEGv_O-19" value="yes" style="edgeLabel;html=1;align=center;verticalAlign=middle;resizable=0;points=[];fontSize=12;" vertex="1" connectable="0" parent="WAfRJhl1cSiEHKuEGv_O-18">
          <mxGeometry x="-0.9531" relative="1" as="geometry">
            <mxPoint as="offset" />
          </mxGeometry>
        </mxCell>
        <mxCell id="WAfRJhl1cSiEHKuEGv_O-12" value="input is 3?" style="strokeWidth=2;html=1;shape=mxgraph.flowchart.decision;whiteSpace=wrap;" vertex="1" parent="1">
          <mxGeometry x="280" y="720" width="120" height="120" as="geometry" />
        </mxCell>
        <mxCell id="WAfRJhl1cSiEHKuEGv_O-15" value="END" style="html=1;dashed=0;whiteSpace=wrap;shape=mxgraph.dfd.start;strokeWidth=2;" vertex="1" parent="1">
          <mxGeometry x="280" y="880" width="120" height="40" as="geometry" />
        </mxCell>
        <mxCell id="WAfRJhl1cSiEHKuEGv_O-24" value="" style="edgeStyle=orthogonalEdgeStyle;rounded=0;orthogonalLoop=1;jettySize=auto;html=1;" edge="1" parent="1" source="WAfRJhl1cSiEHKuEGv_O-20" target="WAfRJhl1cSiEHKuEGv_O-23">
          <mxGeometry relative="1" as="geometry" />
        </mxCell>
        <mxCell id="WAfRJhl1cSiEHKuEGv_O-20" value="print inventory &lt;br&gt;display menu" style="shape=parallelogram;html=1;strokeWidth=2;perimeter=parallelogramPerimeter;whiteSpace=wrap;rounded=1;arcSize=12;size=0.23;" vertex="1" parent="1">
          <mxGeometry x="500" y="160" width="160" height="40" as="geometry" />
        </mxCell>
        <mxCell id="WAfRJhl1cSiEHKuEGv_O-26" value="" style="edgeStyle=orthogonalEdgeStyle;rounded=0;orthogonalLoop=1;jettySize=auto;html=1;" edge="1" parent="1" source="WAfRJhl1cSiEHKuEGv_O-23" target="WAfRJhl1cSiEHKuEGv_O-25">
          <mxGeometry relative="1" as="geometry" />
        </mxCell>
        <mxCell id="WAfRJhl1cSiEHKuEGv_O-23" value="print inventory &lt;br&gt;display menu" style="shape=parallelogram;html=1;strokeWidth=2;perimeter=parallelogramPerimeter;whiteSpace=wrap;rounded=1;arcSize=12;size=0.23;" vertex="1" parent="1">
          <mxGeometry x="500" y="240" width="160" height="40" as="geometry" />
        </mxCell>
        <mxCell id="WAfRJhl1cSiEHKuEGv_O-31" value="" style="edgeStyle=orthogonalEdgeStyle;rounded=0;orthogonalLoop=1;jettySize=auto;html=1;" edge="1" parent="1" source="WAfRJhl1cSiEHKuEGv_O-25" target="WAfRJhl1cSiEHKuEGv_O-28">
          <mxGeometry relative="1" as="geometry" />
        </mxCell>
        <mxCell id="WAfRJhl1cSiEHKuEGv_O-32" value="no" style="edgeLabel;html=1;align=center;verticalAlign=middle;resizable=0;points=[];fontSize=12;" vertex="1" connectable="0" parent="WAfRJhl1cSiEHKuEGv_O-31">
          <mxGeometry x="-0.1255" y="1" relative="1" as="geometry">
            <mxPoint x="-1" as="offset" />
          </mxGeometry>
        </mxCell>
        <mxCell id="WAfRJhl1cSiEHKuEGv_O-40" value="" style="edgeStyle=orthogonalEdgeStyle;rounded=0;orthogonalLoop=1;jettySize=auto;html=1;entryX=0;entryY=0.5;entryDx=0;entryDy=0;" edge="1" parent="1" source="WAfRJhl1cSiEHKuEGv_O-25" target="WAfRJhl1cSiEHKuEGv_O-39">
          <mxGeometry relative="1" as="geometry">
            <mxPoint x="700" y="350" as="targetPoint" />
          </mxGeometry>
        </mxCell>
        <mxCell id="WAfRJhl1cSiEHKuEGv_O-41" value="yes" style="edgeLabel;html=1;align=center;verticalAlign=middle;resizable=0;points=[];fontSize=12;" vertex="1" connectable="0" parent="WAfRJhl1cSiEHKuEGv_O-40">
          <mxGeometry x="-0.1582" y="-1" relative="1" as="geometry">
            <mxPoint y="-1" as="offset" />
          </mxGeometry>
        </mxCell>
        <mxCell id="WAfRJhl1cSiEHKuEGv_O-25" value="input is 1?" style="strokeWidth=2;html=1;shape=mxgraph.flowchart.decision;whiteSpace=wrap;" vertex="1" parent="1">
          <mxGeometry x="520" y="320" width="120" height="120" as="geometry" />
        </mxCell>
        <mxCell id="WAfRJhl1cSiEHKuEGv_O-33" value="" style="edgeStyle=orthogonalEdgeStyle;rounded=0;orthogonalLoop=1;jettySize=auto;html=1;" edge="1" parent="1" source="WAfRJhl1cSiEHKuEGv_O-28" target="WAfRJhl1cSiEHKuEGv_O-29">
          <mxGeometry relative="1" as="geometry" />
        </mxCell>
        <mxCell id="WAfRJhl1cSiEHKuEGv_O-34" value="no" style="edgeLabel;html=1;align=center;verticalAlign=middle;resizable=0;points=[];fontSize=12;" vertex="1" connectable="0" parent="WAfRJhl1cSiEHKuEGv_O-33">
          <mxGeometry x="-0.1429" relative="1" as="geometry">
            <mxPoint as="offset" />
          </mxGeometry>
        </mxCell>
        <mxCell id="WAfRJhl1cSiEHKuEGv_O-28" value="input is 2?" style="strokeWidth=2;html=1;shape=mxgraph.flowchart.decision;whiteSpace=wrap;" vertex="1" parent="1">
          <mxGeometry x="520" y="480" width="120" height="120" as="geometry" />
        </mxCell>
        <mxCell id="WAfRJhl1cSiEHKuEGv_O-35" value="" style="edgeStyle=orthogonalEdgeStyle;rounded=0;orthogonalLoop=1;jettySize=auto;html=1;" edge="1" parent="1" source="WAfRJhl1cSiEHKuEGv_O-29" target="WAfRJhl1cSiEHKuEGv_O-30">
          <mxGeometry relative="1" as="geometry" />
        </mxCell>
        <mxCell id="WAfRJhl1cSiEHKuEGv_O-36" value="no" style="edgeLabel;html=1;align=center;verticalAlign=middle;resizable=0;points=[];fontSize=12;" vertex="1" connectable="0" parent="WAfRJhl1cSiEHKuEGv_O-35">
          <mxGeometry x="-0.1024" relative="1" as="geometry">
            <mxPoint as="offset" />
          </mxGeometry>
        </mxCell>
        <mxCell id="WAfRJhl1cSiEHKuEGv_O-29" value="input is 3?" style="strokeWidth=2;html=1;shape=mxgraph.flowchart.decision;whiteSpace=wrap;" vertex="1" parent="1">
          <mxGeometry x="520" y="640" width="120" height="120" as="geometry" />
        </mxCell>
        <mxCell id="WAfRJhl1cSiEHKuEGv_O-37" style="edgeStyle=orthogonalEdgeStyle;rounded=0;orthogonalLoop=1;jettySize=auto;html=1;exitX=0.5;exitY=1;exitDx=0;exitDy=0;exitPerimeter=0;" edge="1" parent="1" source="WAfRJhl1cSiEHKuEGv_O-30">
          <mxGeometry relative="1" as="geometry">
            <mxPoint x="240" y="780" as="targetPoint" />
            <Array as="points">
              <mxPoint x="580" y="960" />
              <mxPoint x="241" y="960" />
              <mxPoint x="241" y="780" />
            </Array>
          </mxGeometry>
        </mxCell>
        <mxCell id="WAfRJhl1cSiEHKuEGv_O-38" value="no" style="edgeLabel;html=1;align=center;verticalAlign=middle;resizable=0;points=[];fontSize=12;" vertex="1" connectable="0" parent="WAfRJhl1cSiEHKuEGv_O-37">
          <mxGeometry x="-0.9281" relative="1" as="geometry">
            <mxPoint as="offset" />
          </mxGeometry>
        </mxCell>
        <mxCell id="WAfRJhl1cSiEHKuEGv_O-30" value="input is 4?" style="strokeWidth=2;html=1;shape=mxgraph.flowchart.decision;whiteSpace=wrap;" vertex="1" parent="1">
          <mxGeometry x="520" y="800" width="120" height="120" as="geometry" />
        </mxCell>
        <mxCell id="WAfRJhl1cSiEHKuEGv_O-52" style="edgeStyle=orthogonalEdgeStyle;rounded=0;orthogonalLoop=1;jettySize=auto;html=1;exitX=1;exitY=0.5;exitDx=0;exitDy=0;" edge="1" parent="1" source="WAfRJhl1cSiEHKuEGv_O-39">
          <mxGeometry relative="1" as="geometry">
            <mxPoint x="960" y="380" as="targetPoint" />
            <Array as="points">
              <mxPoint x="930" y="380" />
              <mxPoint x="930" y="380" />
            </Array>
          </mxGeometry>
        </mxCell>
        <mxCell id="WAfRJhl1cSiEHKuEGv_O-39" value="display inventory&lt;br&gt;by priority (id)" style="shape=parallelogram;html=1;strokeWidth=2;perimeter=parallelogramPerimeter;whiteSpace=wrap;rounded=1;arcSize=12;size=0.23;" vertex="1" parent="1">
          <mxGeometry x="740" y="360" width="160" height="40" as="geometry" />
        </mxCell>
        <mxCell id="WAfRJhl1cSiEHKuEGv_O-42" value="" style="edgeStyle=orthogonalEdgeStyle;rounded=0;orthogonalLoop=1;jettySize=auto;html=1;entryX=0;entryY=0.5;entryDx=0;entryDy=0;exitX=1;exitY=0.5;exitDx=0;exitDy=0;exitPerimeter=0;" edge="1" parent="1" target="WAfRJhl1cSiEHKuEGv_O-44" source="WAfRJhl1cSiEHKuEGv_O-28">
          <mxGeometry relative="1" as="geometry">
            <mxPoint x="680" y="540" as="sourcePoint" />
            <mxPoint x="740" y="510" as="targetPoint" />
          </mxGeometry>
        </mxCell>
        <mxCell id="WAfRJhl1cSiEHKuEGv_O-43" value="yes" style="edgeLabel;html=1;align=center;verticalAlign=middle;resizable=0;points=[];fontSize=12;" vertex="1" connectable="0" parent="WAfRJhl1cSiEHKuEGv_O-42">
          <mxGeometry x="-0.1582" y="-1" relative="1" as="geometry">
            <mxPoint y="-1" as="offset" />
          </mxGeometry>
        </mxCell>
        <mxCell id="WAfRJhl1cSiEHKuEGv_O-53" style="edgeStyle=orthogonalEdgeStyle;rounded=0;orthogonalLoop=1;jettySize=auto;html=1;exitX=1;exitY=0.5;exitDx=0;exitDy=0;" edge="1" parent="1" source="WAfRJhl1cSiEHKuEGv_O-44">
          <mxGeometry relative="1" as="geometry">
            <mxPoint x="960" y="540" as="targetPoint" />
          </mxGeometry>
        </mxCell>
        <mxCell id="WAfRJhl1cSiEHKuEGv_O-44" value="display finished&lt;br&gt;goods" style="shape=parallelogram;html=1;strokeWidth=2;perimeter=parallelogramPerimeter;whiteSpace=wrap;rounded=1;arcSize=12;size=0.23;" vertex="1" parent="1">
          <mxGeometry x="740" y="520" width="160" height="40" as="geometry" />
        </mxCell>
        <mxCell id="WAfRJhl1cSiEHKuEGv_O-45" value="" style="edgeStyle=orthogonalEdgeStyle;rounded=0;orthogonalLoop=1;jettySize=auto;html=1;exitX=1;exitY=0.5;exitDx=0;exitDy=0;exitPerimeter=0;" edge="1" parent="1" target="WAfRJhl1cSiEHKuEGv_O-47" source="WAfRJhl1cSiEHKuEGv_O-29">
          <mxGeometry relative="1" as="geometry">
            <mxPoint x="660" y="680" as="sourcePoint" />
          </mxGeometry>
        </mxCell>
        <mxCell id="WAfRJhl1cSiEHKuEGv_O-46" value="yes" style="edgeLabel;html=1;align=center;verticalAlign=middle;resizable=0;points=[];fontSize=12;" vertex="1" connectable="0" parent="WAfRJhl1cSiEHKuEGv_O-45">
          <mxGeometry x="-0.1582" y="-1" relative="1" as="geometry">
            <mxPoint y="-1" as="offset" />
          </mxGeometry>
        </mxCell>
        <mxCell id="WAfRJhl1cSiEHKuEGv_O-54" style="edgeStyle=orthogonalEdgeStyle;rounded=0;orthogonalLoop=1;jettySize=auto;html=1;exitX=1;exitY=0.5;exitDx=0;exitDy=0;" edge="1" parent="1" source="WAfRJhl1cSiEHKuEGv_O-47">
          <mxGeometry relative="1" as="geometry">
            <mxPoint x="960" y="700" as="targetPoint" />
            <Array as="points">
              <mxPoint x="881" y="700" />
            </Array>
          </mxGeometry>
        </mxCell>
        <mxCell id="WAfRJhl1cSiEHKuEGv_O-47" value="display ordering&lt;br&gt;goods" style="shape=parallelogram;html=1;strokeWidth=2;perimeter=parallelogramPerimeter;whiteSpace=wrap;rounded=1;arcSize=12;size=0.23;" vertex="1" parent="1">
          <mxGeometry x="740" y="680" width="160" height="40" as="geometry" />
        </mxCell>
        <mxCell id="WAfRJhl1cSiEHKuEGv_O-49" value="" style="edgeStyle=orthogonalEdgeStyle;rounded=0;orthogonalLoop=1;jettySize=auto;html=1;exitX=1;exitY=0.5;exitDx=0;exitDy=0;exitPerimeter=0;" edge="1" parent="1" target="WAfRJhl1cSiEHKuEGv_O-51" source="WAfRJhl1cSiEHKuEGv_O-30">
          <mxGeometry relative="1" as="geometry">
            <mxPoint x="650" y="880" as="sourcePoint" />
          </mxGeometry>
        </mxCell>
        <mxCell id="WAfRJhl1cSiEHKuEGv_O-50" value="yes" style="edgeLabel;html=1;align=center;verticalAlign=middle;resizable=0;points=[];fontSize=12;" vertex="1" connectable="0" parent="WAfRJhl1cSiEHKuEGv_O-49">
          <mxGeometry x="-0.1582" y="-1" relative="1" as="geometry">
            <mxPoint y="-1" as="offset" />
          </mxGeometry>
        </mxCell>
        <mxCell id="WAfRJhl1cSiEHKuEGv_O-55" style="edgeStyle=orthogonalEdgeStyle;rounded=0;orthogonalLoop=1;jettySize=auto;html=1;exitX=1;exitY=0.5;exitDx=0;exitDy=0;" edge="1" parent="1" source="WAfRJhl1cSiEHKuEGv_O-51">
          <mxGeometry relative="1" as="geometry">
            <mxPoint x="240" y="220" as="targetPoint" />
            <Array as="points">
              <mxPoint x="960" y="860" />
              <mxPoint x="960" y="120" />
              <mxPoint x="241" y="120" />
              <mxPoint x="241" y="220" />
            </Array>
          </mxGeometry>
        </mxCell>
        <mxCell id="WAfRJhl1cSiEHKuEGv_O-51" value="display goods &lt;br&gt;that need to be&lt;br&gt;ordered" style="shape=parallelogram;html=1;strokeWidth=2;perimeter=parallelogramPerimeter;whiteSpace=wrap;rounded=1;arcSize=12;size=0.23;" vertex="1" parent="1">
          <mxGeometry x="740" y="840" width="160" height="40" as="geometry" />
        </mxCell>
        <mxCell id="WAfRJhl1cSiEHKuEGv_O-62" value="" style="edgeStyle=orthogonalEdgeStyle;rounded=0;orthogonalLoop=1;jettySize=auto;html=1;" edge="1" parent="1" source="WAfRJhl1cSiEHKuEGv_O-57" target="WAfRJhl1cSiEHKuEGv_O-60">
          <mxGeometry relative="1" as="geometry" />
        </mxCell>
        <mxCell id="WAfRJhl1cSiEHKuEGv_O-57" value="display inventory&lt;br&gt;by priority (id)" style="shape=parallelogram;html=1;strokeWidth=2;perimeter=parallelogramPerimeter;whiteSpace=wrap;rounded=1;arcSize=12;size=0.23;" vertex="1" parent="1">
          <mxGeometry x="260" y="1000" width="160" height="40" as="geometry" />
        </mxCell>
        <mxCell id="WAfRJhl1cSiEHKuEGv_O-58" style="edgeStyle=orthogonalEdgeStyle;rounded=0;orthogonalLoop=1;jettySize=auto;html=1;exitX=1;exitY=0.5;exitDx=0;exitDy=0;exitPerimeter=0;entryX=0.5;entryY=0;entryDx=0;entryDy=0;jumpStyle=arc;jumpSize=12;" edge="1" parent="1" source="WAfRJhl1cSiEHKuEGv_O-8" target="WAfRJhl1cSiEHKuEGv_O-57">
          <mxGeometry relative="1" as="geometry">
            <Array as="points">
              <mxPoint x="440" y="620" />
              <mxPoint x="440" y="980" />
              <mxPoint x="340" y="980" />
            </Array>
          </mxGeometry>
        </mxCell>
        <mxCell id="WAfRJhl1cSiEHKuEGv_O-59" value="yes" style="edgeLabel;html=1;align=center;verticalAlign=middle;resizable=0;points=[];fontSize=12;" vertex="1" connectable="0" parent="WAfRJhl1cSiEHKuEGv_O-58">
          <mxGeometry x="-0.9254" y="3" relative="1" as="geometry">
            <mxPoint y="3" as="offset" />
          </mxGeometry>
        </mxCell>
        <mxCell id="WAfRJhl1cSiEHKuEGv_O-63" value="" style="edgeStyle=orthogonalEdgeStyle;rounded=0;orthogonalLoop=1;jettySize=auto;html=1;" edge="1" parent="1" source="WAfRJhl1cSiEHKuEGv_O-60" target="WAfRJhl1cSiEHKuEGv_O-61">
          <mxGeometry relative="1" as="geometry" />
        </mxCell>
        <mxCell id="WAfRJhl1cSiEHKuEGv_O-60" value="read item id" style="shape=parallelogram;html=1;strokeWidth=2;perimeter=parallelogramPerimeter;whiteSpace=wrap;rounded=1;arcSize=12;size=0.23;" vertex="1" parent="1">
          <mxGeometry x="260" y="1080" width="160" height="40" as="geometry" />
        </mxCell>
        <mxCell id="WAfRJhl1cSiEHKuEGv_O-65" value="" style="edgeStyle=orthogonalEdgeStyle;rounded=0;orthogonalLoop=1;jettySize=auto;html=1;" edge="1" parent="1" source="WAfRJhl1cSiEHKuEGv_O-61" target="WAfRJhl1cSiEHKuEGv_O-64">
          <mxGeometry relative="1" as="geometry" />
        </mxCell>
        <mxCell id="WAfRJhl1cSiEHKuEGv_O-61" value="read sale quantity" style="shape=parallelogram;html=1;strokeWidth=2;perimeter=parallelogramPerimeter;whiteSpace=wrap;rounded=1;arcSize=12;size=0.23;" vertex="1" parent="1">
          <mxGeometry x="260" y="1160" width="160" height="40" as="geometry" />
        </mxCell>
        <mxCell id="WAfRJhl1cSiEHKuEGv_O-66" style="edgeStyle=orthogonalEdgeStyle;rounded=0;orthogonalLoop=1;jettySize=auto;html=1;exitX=0;exitY=0.5;exitDx=0;exitDy=0;" edge="1" parent="1" source="WAfRJhl1cSiEHKuEGv_O-64">
          <mxGeometry relative="1" as="geometry">
            <mxPoint x="240" y="960" as="targetPoint" />
          </mxGeometry>
        </mxCell>
        <mxCell id="WAfRJhl1cSiEHKuEGv_O-64" value="update item quantity" style="rounded=1;whiteSpace=wrap;html=1;absoluteArcSize=1;arcSize=14;strokeWidth=2;" vertex="1" parent="1">
          <mxGeometry x="280" y="1240" width="120" height="40" as="geometry" />
        </mxCell>
      </root>
    </mxGraphModel>
  </diagram>
</mxfile>
